<mxfile host="app.diagrams.net" agent="Mozilla/5.0 (Windows NT 10.0; Win64; x64) AppleWebKit/537.36 (KHTML, like Gecko) Chrome/109.0.0.0 Safari/537.36" version="28.0.5">
  <diagram name="第 1 页" id="TOsGjXq6CqSzaaMkCiaA">
    <mxGraphModel dx="1426" dy="801" grid="1" gridSize="10" guides="1" tooltips="1" connect="1" arrows="1" fold="1" page="1" pageScale="1" pageWidth="827" pageHeight="1169" math="0" shadow="0">
      <root>
        <mxCell id="0" />
        <mxCell id="1" parent="0" />
        <mxCell id="dWiRNLmcqJZTH7nbjR_l-1" value="&lt;font style=&quot;font-size: 16px;&quot;&gt;智慧党建党员学习流程&lt;/font&gt;" style="swimlane;whiteSpace=wrap;html=1;" vertex="1" parent="1">
          <mxGeometry x="390" y="180" width="940" height="680" as="geometry">
            <mxRectangle x="320" y="40" width="220" height="30" as="alternateBounds" />
          </mxGeometry>
        </mxCell>
        <mxCell id="dWiRNLmcqJZTH7nbjR_l-2" value="行业党委审核人" style="rounded=0;whiteSpace=wrap;html=1;" vertex="1" parent="dWiRNLmcqJZTH7nbjR_l-1">
          <mxGeometry x="20" y="22.5" width="300" height="57.5" as="geometry" />
        </mxCell>
        <mxCell id="dWiRNLmcqJZTH7nbjR_l-3" value="行业党委发布人" style="rounded=0;whiteSpace=wrap;html=1;" vertex="1" parent="dWiRNLmcqJZTH7nbjR_l-1">
          <mxGeometry x="320" y="22.5" width="300" height="57.5" as="geometry" />
        </mxCell>
        <mxCell id="dWiRNLmcqJZTH7nbjR_l-4" value="" style="rounded=0;whiteSpace=wrap;html=1;" vertex="1" parent="dWiRNLmcqJZTH7nbjR_l-1">
          <mxGeometry x="20" y="80" width="300" height="580" as="geometry" />
        </mxCell>
        <mxCell id="dWiRNLmcqJZTH7nbjR_l-5" value="" style="rounded=0;whiteSpace=wrap;html=1;" vertex="1" parent="dWiRNLmcqJZTH7nbjR_l-1">
          <mxGeometry x="320" y="80" width="300" height="580" as="geometry" />
        </mxCell>
        <mxCell id="dWiRNLmcqJZTH7nbjR_l-6" value="" style="rounded=0;html=1;jettySize=auto;orthogonalLoop=1;fontSize=11;endArrow=block;endFill=0;endSize=8;strokeWidth=1;shadow=0;labelBackgroundColor=none;edgeStyle=orthogonalEdgeStyle;entryX=0.5;entryY=0;entryDx=0;entryDy=0;" edge="1" parent="dWiRNLmcqJZTH7nbjR_l-1" source="dWiRNLmcqJZTH7nbjR_l-7" target="dWiRNLmcqJZTH7nbjR_l-9">
          <mxGeometry relative="1" as="geometry">
            <mxPoint x="170" y="180" as="targetPoint" />
          </mxGeometry>
        </mxCell>
        <mxCell id="dWiRNLmcqJZTH7nbjR_l-7" value="开始" style="rounded=1;whiteSpace=wrap;html=1;fontSize=12;glass=0;strokeWidth=1;shadow=0;" vertex="1" parent="dWiRNLmcqJZTH7nbjR_l-1">
          <mxGeometry x="420" y="90" width="100" height="30" as="geometry" />
        </mxCell>
        <mxCell id="dWiRNLmcqJZTH7nbjR_l-8" style="edgeStyle=orthogonalEdgeStyle;rounded=0;orthogonalLoop=1;jettySize=auto;html=1;exitX=0.5;exitY=1;exitDx=0;exitDy=0;entryX=0.5;entryY=0;entryDx=0;entryDy=0;" edge="1" parent="dWiRNLmcqJZTH7nbjR_l-1" source="dWiRNLmcqJZTH7nbjR_l-9" target="dWiRNLmcqJZTH7nbjR_l-14">
          <mxGeometry relative="1" as="geometry" />
        </mxCell>
        <mxCell id="dWiRNLmcqJZTH7nbjR_l-67" value="&lt;span style=&quot;font-size: 12px; white-space: normal; background-color: rgb(236, 236, 236);&quot;&gt;提交审核&lt;/span&gt;" style="edgeLabel;html=1;align=center;verticalAlign=middle;resizable=0;points=[];" vertex="1" connectable="0" parent="dWiRNLmcqJZTH7nbjR_l-8">
          <mxGeometry x="-0.1484" y="1" relative="1" as="geometry">
            <mxPoint as="offset" />
          </mxGeometry>
        </mxCell>
        <mxCell id="dWiRNLmcqJZTH7nbjR_l-9" value="搜集图文、视频等学习资料、政策解读材料，完善材料内容" style="rounded=0;whiteSpace=wrap;html=1;" vertex="1" parent="dWiRNLmcqJZTH7nbjR_l-1">
          <mxGeometry x="410" y="150" width="120" height="60" as="geometry" />
        </mxCell>
        <mxCell id="dWiRNLmcqJZTH7nbjR_l-61" style="edgeStyle=orthogonalEdgeStyle;rounded=0;orthogonalLoop=1;jettySize=auto;html=1;exitX=0;exitY=0.5;exitDx=0;exitDy=0;entryX=0;entryY=0.5;entryDx=0;entryDy=0;" edge="1" parent="dWiRNLmcqJZTH7nbjR_l-1" source="dWiRNLmcqJZTH7nbjR_l-14" target="dWiRNLmcqJZTH7nbjR_l-16">
          <mxGeometry relative="1" as="geometry">
            <Array as="points">
              <mxPoint x="70" y="300" />
              <mxPoint x="70" y="405" />
            </Array>
          </mxGeometry>
        </mxCell>
        <mxCell id="dWiRNLmcqJZTH7nbjR_l-64" value="yes" style="edgeLabel;html=1;align=center;verticalAlign=middle;resizable=0;points=[];" vertex="1" connectable="0" parent="dWiRNLmcqJZTH7nbjR_l-61">
          <mxGeometry x="0.1412" y="-2" relative="1" as="geometry">
            <mxPoint as="offset" />
          </mxGeometry>
        </mxCell>
        <mxCell id="dWiRNLmcqJZTH7nbjR_l-62" style="edgeStyle=orthogonalEdgeStyle;rounded=0;orthogonalLoop=1;jettySize=auto;html=1;exitX=0.5;exitY=1;exitDx=0;exitDy=0;entryX=0.5;entryY=0;entryDx=0;entryDy=0;" edge="1" parent="dWiRNLmcqJZTH7nbjR_l-1" source="dWiRNLmcqJZTH7nbjR_l-14" target="dWiRNLmcqJZTH7nbjR_l-58">
          <mxGeometry relative="1" as="geometry" />
        </mxCell>
        <mxCell id="dWiRNLmcqJZTH7nbjR_l-63" value="no" style="edgeLabel;html=1;align=center;verticalAlign=middle;resizable=0;points=[];" vertex="1" connectable="0" parent="dWiRNLmcqJZTH7nbjR_l-62">
          <mxGeometry x="-0.1906" relative="1" as="geometry">
            <mxPoint as="offset" />
          </mxGeometry>
        </mxCell>
        <mxCell id="dWiRNLmcqJZTH7nbjR_l-14" value="审核内容&lt;span style=&quot;background-color: transparent;&quot;&gt;是&lt;/span&gt;&lt;div&gt;&lt;span style=&quot;background-color: transparent;&quot;&gt;否可以发布&lt;/span&gt;&lt;/div&gt;" style="rhombus;whiteSpace=wrap;html=1;" vertex="1" parent="dWiRNLmcqJZTH7nbjR_l-1">
          <mxGeometry x="110" y="270" width="90" height="60" as="geometry" />
        </mxCell>
        <mxCell id="dWiRNLmcqJZTH7nbjR_l-71" style="edgeStyle=orthogonalEdgeStyle;rounded=0;orthogonalLoop=1;jettySize=auto;html=1;exitX=0.5;exitY=1;exitDx=0;exitDy=0;entryX=0;entryY=0.5;entryDx=0;entryDy=0;" edge="1" parent="dWiRNLmcqJZTH7nbjR_l-1" source="dWiRNLmcqJZTH7nbjR_l-16" target="dWiRNLmcqJZTH7nbjR_l-69">
          <mxGeometry relative="1" as="geometry" />
        </mxCell>
        <mxCell id="dWiRNLmcqJZTH7nbjR_l-16" value="审核通过允许发布" style="rounded=0;whiteSpace=wrap;html=1;" vertex="1" parent="dWiRNLmcqJZTH7nbjR_l-1">
          <mxGeometry x="95" y="375" width="120" height="60" as="geometry" />
        </mxCell>
        <mxCell id="dWiRNLmcqJZTH7nbjR_l-22" value="结束" style="rounded=1;whiteSpace=wrap;html=1;" vertex="1" parent="dWiRNLmcqJZTH7nbjR_l-1">
          <mxGeometry x="430" y="590" width="80" height="30" as="geometry" />
        </mxCell>
        <mxCell id="dWiRNLmcqJZTH7nbjR_l-56" value="司机党员" style="rounded=0;whiteSpace=wrap;html=1;" vertex="1" parent="dWiRNLmcqJZTH7nbjR_l-1">
          <mxGeometry x="620" y="22.5" width="300" height="57.5" as="geometry" />
        </mxCell>
        <mxCell id="dWiRNLmcqJZTH7nbjR_l-57" value="" style="rounded=0;whiteSpace=wrap;html=1;" vertex="1" parent="dWiRNLmcqJZTH7nbjR_l-1">
          <mxGeometry x="620" y="80" width="300" height="580" as="geometry" />
        </mxCell>
        <mxCell id="dWiRNLmcqJZTH7nbjR_l-65" style="edgeStyle=orthogonalEdgeStyle;rounded=0;orthogonalLoop=1;jettySize=auto;html=1;exitX=1;exitY=0.5;exitDx=0;exitDy=0;entryX=1;entryY=0.5;entryDx=0;entryDy=0;" edge="1" parent="dWiRNLmcqJZTH7nbjR_l-1" source="dWiRNLmcqJZTH7nbjR_l-58" target="dWiRNLmcqJZTH7nbjR_l-14">
          <mxGeometry relative="1" as="geometry" />
        </mxCell>
        <mxCell id="dWiRNLmcqJZTH7nbjR_l-66" value="提交审核" style="edgeLabel;html=1;align=center;verticalAlign=middle;resizable=0;points=[];" vertex="1" connectable="0" parent="dWiRNLmcqJZTH7nbjR_l-65">
          <mxGeometry x="-0.0901" y="2" relative="1" as="geometry">
            <mxPoint as="offset" />
          </mxGeometry>
        </mxCell>
        <mxCell id="dWiRNLmcqJZTH7nbjR_l-58" value="根据修改建议，整改材料内容" style="rounded=0;whiteSpace=wrap;html=1;" vertex="1" parent="dWiRNLmcqJZTH7nbjR_l-1">
          <mxGeometry x="410" y="370" width="120" height="60" as="geometry" />
        </mxCell>
        <mxCell id="dWiRNLmcqJZTH7nbjR_l-72" value="" style="edgeStyle=orthogonalEdgeStyle;rounded=0;orthogonalLoop=1;jettySize=auto;html=1;entryX=0;entryY=0.5;entryDx=0;entryDy=0;" edge="1" parent="dWiRNLmcqJZTH7nbjR_l-1" source="dWiRNLmcqJZTH7nbjR_l-69" target="dWiRNLmcqJZTH7nbjR_l-73">
          <mxGeometry relative="1" as="geometry" />
        </mxCell>
        <mxCell id="dWiRNLmcqJZTH7nbjR_l-74" style="edgeStyle=orthogonalEdgeStyle;rounded=0;orthogonalLoop=1;jettySize=auto;html=1;exitX=0.5;exitY=1;exitDx=0;exitDy=0;entryX=0.5;entryY=0;entryDx=0;entryDy=0;" edge="1" parent="dWiRNLmcqJZTH7nbjR_l-1" source="dWiRNLmcqJZTH7nbjR_l-69" target="dWiRNLmcqJZTH7nbjR_l-22">
          <mxGeometry relative="1" as="geometry" />
        </mxCell>
        <mxCell id="dWiRNLmcqJZTH7nbjR_l-69" value="审核通过允许发布" style="rounded=0;whiteSpace=wrap;html=1;" vertex="1" parent="dWiRNLmcqJZTH7nbjR_l-1">
          <mxGeometry x="410" y="470" width="120" height="60" as="geometry" />
        </mxCell>
        <mxCell id="dWiRNLmcqJZTH7nbjR_l-76" value="" style="edgeStyle=orthogonalEdgeStyle;rounded=0;orthogonalLoop=1;jettySize=auto;html=1;" edge="1" parent="dWiRNLmcqJZTH7nbjR_l-1" source="dWiRNLmcqJZTH7nbjR_l-73">
          <mxGeometry relative="1" as="geometry">
            <mxPoint x="770" y="575" as="targetPoint" />
          </mxGeometry>
        </mxCell>
        <mxCell id="dWiRNLmcqJZTH7nbjR_l-73" value="党员用户查阅学习" style="rounded=0;whiteSpace=wrap;html=1;" vertex="1" parent="dWiRNLmcqJZTH7nbjR_l-1">
          <mxGeometry x="710" y="470" width="120" height="60" as="geometry" />
        </mxCell>
        <mxCell id="dWiRNLmcqJZTH7nbjR_l-77" value="统计学习时长，答题情况，活动参与度，对党员进行综合排名" style="shape=process;whiteSpace=wrap;html=1;backgroundOutline=1;" vertex="1" parent="dWiRNLmcqJZTH7nbjR_l-1">
          <mxGeometry x="710" y="575" width="120" height="60" as="geometry" />
        </mxCell>
      </root>
    </mxGraphModel>
  </diagram>
</mxfile>
